<mxfile host="65bd71144e">
    <diagram id="qaER7ldD5PyyKmJnysRU" name="Page-1">
        <mxGraphModel dx="2000" dy="490" grid="0" gridSize="10" guides="1" tooltips="1" connect="1" arrows="1" fold="1" page="1" pageScale="1" pageWidth="850" pageHeight="1100" math="0" shadow="0">
            <root>
                <mxCell id="0"/>
                <mxCell id="1" parent="0"/>
                <mxCell id="20" value="Streaming layer (Business Transformation)" style="rounded=0;whiteSpace=wrap;html=1;fillColor=#1D1C18;" parent="1" vertex="1">
                    <mxGeometry x="48.5" y="156" width="397.5" height="27" as="geometry"/>
                </mxCell>
                <mxCell id="5" style="edgeStyle=none;html=1;" parent="1" source="2" target="4" edge="1">
                    <mxGeometry relative="1" as="geometry"/>
                </mxCell>
                <mxCell id="2" value="Landing Layer/Zone" style="rounded=0;whiteSpace=wrap;html=1;" parent="1" vertex="1">
                    <mxGeometry x="-70" y="210" width="160" height="80" as="geometry"/>
                </mxCell>
                <mxCell id="10" style="edgeStyle=orthogonalEdgeStyle;html=1;exitX=0.25;exitY=1;exitDx=0;exitDy=0;entryX=1;entryY=0.25;entryDx=0;entryDy=0;" parent="1" source="3" target="6" edge="1">
                    <mxGeometry relative="1" as="geometry"/>
                </mxCell>
                <mxCell id="24" value="Validation&amp;nbsp; and cleanup" style="edgeLabel;html=1;align=center;verticalAlign=middle;resizable=0;points=[];" parent="10" vertex="1" connectable="0">
                    <mxGeometry x="-0.5009" relative="1" as="geometry">
                        <mxPoint x="-45" as="offset"/>
                    </mxGeometry>
                </mxCell>
                <mxCell id="3" value="Bronze layer" style="rounded=0;whiteSpace=wrap;html=1;" parent="1" vertex="1">
                    <mxGeometry x="456" y="210" width="160" height="80" as="geometry"/>
                </mxCell>
                <mxCell id="7" style="edgeStyle=none;html=1;entryX=0.5;entryY=0;entryDx=0;entryDy=0;" parent="1" source="4" target="6" edge="1">
                    <mxGeometry relative="1" as="geometry"/>
                </mxCell>
                <mxCell id="11" style="edgeStyle=orthogonalEdgeStyle;html=1;entryX=0;entryY=0.5;entryDx=0;entryDy=0;" parent="1" source="4" target="3" edge="1">
                    <mxGeometry relative="1" as="geometry"/>
                </mxCell>
                <mxCell id="4" value="Delta file exists" style="rhombus;whiteSpace=wrap;html=1;" parent="1" vertex="1">
                    <mxGeometry x="197.5" y="195" width="120" height="110" as="geometry"/>
                </mxCell>
                <mxCell id="9" value="Merge (key ID or Surrogate key" style="edgeStyle=orthogonalEdgeStyle;html=1;exitX=1.003;exitY=0.663;exitDx=0;exitDy=0;entryX=0.75;entryY=1;entryDx=0;entryDy=0;exitPerimeter=0;" parent="1" source="6" target="3" edge="1">
                    <mxGeometry x="0.183" y="-49" relative="1" as="geometry">
                        <mxPoint y="1" as="offset"/>
                    </mxGeometry>
                </mxCell>
                <mxCell id="6" value="temp in Memory Staging layer&lt;br&gt;(Empheral layer)" style="rounded=0;whiteSpace=wrap;html=1;" parent="1" vertex="1">
                    <mxGeometry x="180" y="470" width="155" height="80" as="geometry"/>
                </mxCell>
                <mxCell id="14" value="" style="endArrow=classic;html=1;exitX=1;exitY=0.5;exitDx=0;exitDy=0;" parent="1" edge="1" source="27">
                    <mxGeometry width="50" height="50" relative="1" as="geometry">
                        <mxPoint x="-210" y="265" as="sourcePoint"/>
                        <mxPoint x="-70" y="245" as="targetPoint"/>
                    </mxGeometry>
                </mxCell>
                <mxCell id="16" value="" style="endArrow=classic;html=1;" parent="1" edge="1">
                    <mxGeometry width="50" height="50" relative="1" as="geometry">
                        <mxPoint x="-210" y="200" as="sourcePoint"/>
                        <mxPoint x="-70" y="225" as="targetPoint"/>
                    </mxGeometry>
                </mxCell>
                <mxCell id="17" value="" style="endArrow=classic;html=1;" parent="1" edge="1">
                    <mxGeometry width="50" height="50" relative="1" as="geometry">
                        <mxPoint x="-200" y="340" as="sourcePoint"/>
                        <mxPoint x="-70" y="280" as="targetPoint"/>
                    </mxGeometry>
                </mxCell>
                <mxCell id="22" value="Persisten artifact" style="text;html=1;align=center;verticalAlign=middle;resizable=0;points=[];autosize=1;strokeColor=none;fillColor=none;" parent="1" vertex="1">
                    <mxGeometry x="486" y="183" width="107" height="26" as="geometry"/>
                </mxCell>
                <mxCell id="25" value="" style="shape=cylinder3;whiteSpace=wrap;html=1;boundedLbl=1;backgroundOutline=1;size=15;" vertex="1" parent="1">
                    <mxGeometry x="-248" y="154" width="35" height="66" as="geometry"/>
                </mxCell>
                <mxCell id="26" value="" style="ellipse;shape=cloud;whiteSpace=wrap;html=1;" vertex="1" parent="1">
                    <mxGeometry x="-255" y="319" width="59" height="62" as="geometry"/>
                </mxCell>
                <mxCell id="27" value="" style="shape=hexagon;perimeter=hexagonPerimeter2;whiteSpace=wrap;html=1;fixedSize=1;size=17;" vertex="1" parent="1">
                    <mxGeometry x="-276" y="237" width="63" height="53" as="geometry"/>
                </mxCell>
                <mxCell id="28" value="&lt;font style=&quot;font-size: 11px;&quot;&gt;Checkpoint/Watermark&lt;/font&gt;" style="text;html=1;align=center;verticalAlign=middle;resizable=0;points=[];autosize=1;strokeColor=none;fillColor=none;" vertex="1" parent="1">
                    <mxGeometry x="314" y="220" width="129" height="26" as="geometry"/>
                </mxCell>
                <mxCell id="29" value="Streaming" style="text;html=1;strokeColor=none;fillColor=none;align=center;verticalAlign=middle;whiteSpace=wrap;rounded=0;fontSize=11;" vertex="1" parent="1">
                    <mxGeometry x="116" y="232" width="48" height="21" as="geometry"/>
                </mxCell>
                <mxCell id="30" value="Streaming" style="text;html=1;strokeColor=none;fillColor=none;align=center;verticalAlign=middle;whiteSpace=wrap;rounded=0;fontSize=11;rotation=90;" vertex="1" parent="1">
                    <mxGeometry x="223.5" y="367.5" width="53" height="26" as="geometry"/>
                </mxCell>
            </root>
        </mxGraphModel>
    </diagram>
</mxfile>